<svg xmlns="http://www.w3.org/2000/svg" xmlns:xlink="http://www.w3.org/1999/xlink" version="1.1" width="568" height="568" enable-background="new 0 0 505 505" xml:space="preserve" style=""><rect id="backgroundrect" width="100%" height="100%" x="0" y="0" fill="none" stroke="none" class="" style=""/>


<g class="currentLayer" style=""><title>Layer 1</title><rect y="0" fill="#FBDE34" width="504.6700134277344" height="504.4419860839844" id="svg_1" class="" x="0"/><g id="svg_2" class="" fill="#fcf2ba" opacity="1" stroke="#000000" stroke-opacity="1" fill-opacity="1" stroke-dasharray="5,5">
	<path fill="#fcf2ba" d="M217.503,388.1930000040531 v14.757 h-16.155 v39.766 c0,3.729 0.6210000000000001,6.214 1.864,7.457 c1.243,1.242 3.728,1.863 7.456,1.863 c1.243,0 2.432,-0.05100000000000001 3.573,-0.15500000000000003 c1.138,-0.10200000000000001 2.226,-0.257 3.262,-0.466 V468.5020000040531 c-1.864,0.31100000000000005 -3.9370000000000003,0.517 -6.213,0.6210000000000001 c-2.279,0.10300000000000001 -4.505,0.15500000000000003 -6.68,0.15500000000000003 c-3.417,0 -6.655,-0.232 -9.708,-0.6980000000000002 c-3.056,-0.467 -5.747,-1.372 -8.077,-2.7190000000000003 c-2.33,-1.3450000000000002 -4.17,-3.262 -5.515,-5.747 c-1.347,-2.485 -2.019,-5.748 -2.019,-9.786 v-47.378 h-13.359 v-14.757 h13.359 v-24.077 h22.058 v24.077 H217.503 z" id="svg_3" fill-opacity="1" opacity="1" stroke="#000000" stroke-opacity="1" stroke-dasharray="5,5"/>
	<path fill="#fcf2ba" d="M248.569,357.5930000040531 v41.785 h0.466 c2.7960000000000003,-4.66 6.369,-8.051 10.718,-10.175 c4.349,-2.121 8.594,-3.185 12.737,-3.185 c5.9030000000000005,0 10.742,0.804 14.524000000000001,2.408 c3.778,1.606 6.757,3.832 8.932,6.68 c2.175,2.849 3.701,6.317 4.582,10.407 c0.8790000000000001,4.092 1.32,8.621 1.32,13.592 V468.5020000040531 h-22.058 v-45.357 c0,-6.627 -1.036,-11.573 -3.106,-14.835 c-2.073,-3.262 -5.747,-4.894 -11.029,-4.894 c-6.007,0 -10.356,1.787 -13.048,5.359 c-2.694,3.573 -4.039,9.451 -4.039,17.631 V468.5020000040531 h-22.058 V357.5930000040531 H248.569 z" id="svg_4" fill-opacity="1" opacity="1" stroke="#000000" stroke-opacity="1" stroke-dasharray="5,5"/>
	<path fill="#fcf2ba" d="M334.467,449.2400000040531 c3.313,3.211 8.077,4.815 14.291,4.815 c4.451,0 8.283,-1.111 11.495,-3.34 c3.208,-2.226 5.177,-4.582 5.902,-7.067 h19.417 c-3.106,9.631 -7.871,16.519 -14.291,20.659 c-6.422,4.144 -14.188,6.214 -23.3,6.214 c-6.318,0 -12.015,-1.01 -17.087,-3.029 c-5.075,-2.02 -9.374,-4.893 -12.894,-8.621 c-3.521,-3.728 -6.24,-8.18 -8.154,-13.358 c-1.9180000000000001,-5.178 -2.874,-10.874 -2.874,-17.087 c0,-6.005 0.982,-11.597 2.951,-16.776 c1.9660000000000002,-5.177 4.7620000000000005,-9.655 8.388,-13.437 c3.624,-3.779 7.947,-6.757 12.971,-8.932 c5.021,-2.175 10.587,-3.263 16.699,-3.263 c6.834,0 12.788,1.32 17.863,3.962 c5.072,2.641 9.242,6.188 12.504,10.64 c3.263,4.454 5.617,9.529 7.068,15.224 c1.449,5.696 1.9660000000000002,11.649000000000001 1.553,17.863 H329.03 C329.341,440.8530000040531 331.151,446.0320000040531 334.467,449.2400000040531 zM359.398,406.98900000405314 c-2.641,-2.898 -6.655,-4.35 -12.039,-4.35 c-3.521,0 -6.446,0.5980000000000001 -8.776,1.786 c-2.33,1.192 -4.193,2.668 -5.5920000000000005,4.428 c-1.3980000000000001,1.762 -2.384,3.6260000000000003 -2.951,5.5920000000000005 c-0.5700000000000001,1.969 -0.908,3.728 -1.01,5.281 h35.882 C363.876,414.1350000040531 362.039,409.8900000040531 359.398,406.98900000405314 z" id="svg_5" fill-opacity="1" opacity="1" stroke="#000000" stroke-opacity="1" stroke-dasharray="5,5"/>
	<path fill="#fcf2ba" d="M413.221,388.1930000040531 v11.185 h0.466 c2.7960000000000003,-4.66 6.42,-8.051 10.874,-10.175 c4.451,-2.121 9.009,-3.185 13.669,-3.185 c5.9030000000000005,0 10.742,0.804 14.524000000000001,2.408 c3.778,1.606 6.757,3.832 8.932,6.68 c2.175,2.849 3.701,6.317 4.582,10.407 c0.8790000000000001,4.092 1.32,8.621 1.32,13.592 V468.5020000040531 H445.53 v-45.357 c0,-6.627 -1.036,-11.573 -3.106,-14.835 c-2.073,-3.262 -5.747,-4.894 -11.029,-4.894 c-6.007,0 -10.356,1.787 -13.048,5.359 c-2.694,3.573 -4.039,9.451 -4.039,17.631 V468.5020000040531 H392.25 v-80.309 H413.221 z" id="svg_6" fill-opacity="1" opacity="1" stroke="#000000" stroke-opacity="1" stroke-dasharray="5,5"/>
</g><g class="" id="svg_8">
	<path fill="#524739" d="M237.33798382568358,408.2351218912601 v14.757 h-16.155 v39.766 c0,3.729 0.6210000000000006,6.214 1.864,7.457 c1.243,1.242 3.728,1.863 7.456,1.863 c1.243,0 2.432,-0.05100000000000005 3.573,-0.15500000000000014 c1.138,-0.10200000000000002 2.226,-0.257 3.262,-0.466 V488.54412189126015 c-1.864,0.3110000000000003 -3.9370000000000003,0.517 -6.213,0.6210000000000006 c-2.279,0.10300000000000002 -4.505,0.15500000000000014 -6.68,0.15500000000000014 c-3.417,0 -6.655,-0.232 -9.708,-0.6980000000000008 c-3.056,-0.467 -5.747,-1.372 -8.077,-2.7190000000000003 c-2.33,-1.3450000000000002 -4.17,-3.262 -5.515,-5.747 c-1.347,-2.485 -2.019,-5.748 -2.019,-9.786 v-47.378 h-13.359 v-14.757 h13.359 v-24.077 h22.058 v24.077 H237.33798382568358 z" id="svg_14"/>
	<path fill="#524739" d="M268.40398382568355,377.63512189126016 v41.785 h0.466 c2.7960000000000003,-4.66 6.369,-8.051 10.718,-10.175 c4.349,-2.121 8.594,-3.185 12.737,-3.185 c5.9030000000000005,0 10.742,0.804 14.524000000000001,2.408 c3.778,1.606 6.757,3.832 8.932,6.68 c2.175,2.849 3.701,6.317 4.582,10.407 c0.8790000000000006,4.092 1.32,8.621 1.32,13.592 V488.54412189126015 h-22.058 v-45.357 c0,-6.627 -1.036,-11.573 -3.106,-14.835 c-2.073,-3.262 -5.747,-4.894 -11.029,-4.894 c-6.007,0 -10.356,1.787 -13.048,5.359 c-2.694,3.573 -4.039,9.451 -4.039,17.631 V488.54412189126015 h-22.058 V377.63512189126016 H268.40398382568355 z" id="svg_17"/>
	<path fill="#524739" d="M354.3019838256836,469.28212189126015 c3.313,3.211 8.077,4.815 14.291,4.815 c4.451,0 8.283,-1.111 11.495,-3.34 c3.208,-2.226 5.177,-4.582 5.902,-7.067 h19.417 c-3.106,9.631 -7.871,16.519 -14.291,20.659 c-6.422,4.144 -14.188,6.214 -23.3,6.214 c-6.318,0 -12.015,-1.01 -17.087,-3.029 c-5.075,-2.02 -9.374,-4.893 -12.894,-8.621 c-3.521,-3.728 -6.24,-8.18 -8.154,-13.358 c-1.9180000000000001,-5.178 -2.874,-10.874 -2.874,-17.087 c0,-6.005 0.982,-11.597 2.951,-16.776 c1.9660000000000002,-5.177 4.7620000000000005,-9.655 8.388,-13.437 c3.624,-3.779 7.947,-6.757 12.971,-8.932 c5.021,-2.175 10.587,-3.263 16.699,-3.263 c6.834,0 12.788,1.32 17.863,3.962 c5.072,2.641 9.242,6.188 12.504,10.64 c3.263,4.454 5.617,9.529 7.068,15.224 c1.449,5.696 1.9660000000000002,11.649000000000001 1.553,17.863 H348.86498382568357 C349.1759838256836,460.89512189126015 350.9859838256836,466.0741218912601 354.3019838256836,469.28212189126015 zM379.2329838256836,427.03112189126017 c-2.641,-2.898 -6.655,-4.35 -12.039,-4.35 c-3.521,0 -6.446,0.5980000000000005 -8.776,1.786 c-2.33,1.192 -4.193,2.668 -5.5920000000000005,4.428 c-1.3980000000000001,1.762 -2.384,3.6260000000000003 -2.951,5.5920000000000005 c-0.5700000000000005,1.969 -0.908,3.728 -1.01,5.281 h35.882 C383.71098382568357,434.17712189126013 381.8739838256836,429.9321218912601 379.2329838256836,427.03112189126017 z" id="svg_19"/>
	<path fill="#524739" d="M433.0559838256836,408.2351218912601 v11.185 h0.466 c2.7960000000000003,-4.66 6.42,-8.051 10.874,-10.175 c4.451,-2.121 9.009,-3.185 13.669,-3.185 c5.9030000000000005,0 10.742,0.804 14.524000000000001,2.408 c3.778,1.606 6.757,3.832 8.932,6.68 c2.175,2.849 3.701,6.317 4.582,10.407 c0.8790000000000006,4.092 1.32,8.621 1.32,13.592 V488.54412189126015 H465.36498382568357 v-45.357 c0,-6.627 -1.036,-11.573 -3.106,-14.835 c-2.073,-3.262 -5.747,-4.894 -11.029,-4.894 c-6.007,0 -10.356,1.787 -13.048,5.359 c-2.694,3.573 -4.039,9.451 -4.039,17.631 V488.54412189126015 H412.0849838256836 v-80.309 H433.0559838256836 z" id="svg_21"/>
</g><g class="" id="svg_23" fill="none" stroke="#000000" stroke-opacity="1" stroke-dasharray="5,5" opacity="0">
	<path fill="none" d="M257.3379838256836,428.2351218912601 v14.757 h-16.155 v39.766 c0,3.729 0.6210000000000007,6.214 1.864,7.457 c1.243,1.242 3.728,1.863 7.456,1.863 c1.243,0 2.432,-0.05100000000000006 3.573,-0.15500000000000017 c1.138,-0.10200000000000002 2.226,-0.257 3.262,-0.466 V508.54412189126015 c-1.864,0.31100000000000033 -3.9370000000000003,0.517 -6.213,0.6210000000000007 c-2.279,0.10300000000000002 -4.505,0.15500000000000017 -6.68,0.15500000000000017 c-3.417,0 -6.655,-0.232 -9.708,-0.698000000000001 c-3.056,-0.467 -5.747,-1.372 -8.077,-2.7190000000000003 c-2.33,-1.3450000000000002 -4.17,-3.262 -5.515,-5.747 c-1.347,-2.485 -2.019,-5.748 -2.019,-9.786 v-47.378 h-13.359 v-14.757 h13.359 v-24.077 h22.058 v24.077 H257.3379838256836 z" id="svg_25" stroke="#000000" stroke-opacity="1" stroke-dasharray="5,5" opacity="0"/>
	<path fill="none" d="M288.40398382568355,397.63512189126016 v41.785 h0.466 c2.7960000000000003,-4.66 6.369,-8.051 10.718,-10.175 c4.349,-2.121 8.594,-3.185 12.737,-3.185 c5.9030000000000005,0 10.742,0.804 14.524000000000001,2.408 c3.778,1.606 6.757,3.832 8.932,6.68 c2.175,2.849 3.701,6.317 4.582,10.407 c0.8790000000000007,4.092 1.32,8.621 1.32,13.592 V508.54412189126015 h-22.058 v-45.357 c0,-6.627 -1.036,-11.573 -3.106,-14.835 c-2.073,-3.262 -5.747,-4.894 -11.029,-4.894 c-6.007,0 -10.356,1.787 -13.048,5.359 c-2.694,3.573 -4.039,9.451 -4.039,17.631 V508.54412189126015 h-22.058 V397.63512189126016 H288.40398382568355 z" id="svg_27" stroke="#000000" stroke-opacity="1" stroke-dasharray="5,5" opacity="0"/>
	<path fill="none" d="M374.3019838256836,489.28212189126015 c3.313,3.211 8.077,4.815 14.291,4.815 c4.451,0 8.283,-1.111 11.495,-3.34 c3.208,-2.226 5.177,-4.582 5.902,-7.067 h19.417 c-3.106,9.631 -7.871,16.519 -14.291,20.659 c-6.422,4.144 -14.188,6.214 -23.3,6.214 c-6.318,0 -12.015,-1.01 -17.087,-3.029 c-5.075,-2.02 -9.374,-4.893 -12.894,-8.621 c-3.521,-3.728 -6.24,-8.18 -8.154,-13.358 c-1.9180000000000001,-5.178 -2.874,-10.874 -2.874,-17.087 c0,-6.005 0.982,-11.597 2.951,-16.776 c1.9660000000000002,-5.177 4.7620000000000005,-9.655 8.388,-13.437 c3.624,-3.779 7.947,-6.757 12.971,-8.932 c5.021,-2.175 10.587,-3.263 16.699,-3.263 c6.834,0 12.788,1.32 17.863,3.962 c5.072,2.641 9.242,6.188 12.504,10.64 c3.263,4.454 5.617,9.529 7.068,15.224 c1.449,5.696 1.9660000000000002,11.649000000000001 1.553,17.863 H368.86498382568357 C369.1759838256836,480.89512189126015 370.9859838256836,486.0741218912601 374.3019838256836,489.28212189126015 zM399.2329838256836,447.03112189126017 c-2.641,-2.898 -6.655,-4.35 -12.039,-4.35 c-3.521,0 -6.446,0.5980000000000006 -8.776,1.786 c-2.33,1.192 -4.193,2.668 -5.5920000000000005,4.428 c-1.3980000000000001,1.762 -2.384,3.6260000000000003 -2.951,5.5920000000000005 c-0.5700000000000006,1.969 -0.908,3.728 -1.01,5.281 h35.882 C403.71098382568357,454.17712189126013 401.8739838256836,449.9321218912601 399.2329838256836,447.03112189126017 z" id="svg_29" stroke="#000000" stroke-opacity="1" stroke-dasharray="5,5" opacity="0"/>
	<path fill="none" d="M453.0559838256836,428.2351218912601 v11.185 h0.466 c2.7960000000000003,-4.66 6.42,-8.051 10.874,-10.175 c4.451,-2.121 9.009,-3.185 13.669,-3.185 c5.9030000000000005,0 10.742,0.804 14.524000000000001,2.408 c3.778,1.606 6.757,3.832 8.932,6.68 c2.175,2.849 3.701,6.317 4.582,10.407 c0.8790000000000007,4.092 1.32,8.621 1.32,13.592 V508.54412189126015 H485.36498382568357 v-45.357 c0,-6.627 -1.036,-11.573 -3.106,-14.835 c-2.073,-3.262 -5.747,-4.894 -11.029,-4.894 c-6.007,0 -10.356,1.787 -13.048,5.359 c-2.694,3.573 -4.039,9.451 -4.039,17.631 V508.54412189126015 H432.0849838256836 v-80.309 H453.0559838256836 z" id="svg_31" stroke="#000000" stroke-opacity="1" stroke-dasharray="5,5" opacity="0"/>
</g><rect y="60.00000110268593" fill="none" width="504.6700134277344" height="504.4419860839844" class="" x="60" stroke="#fbde34" stroke-opacity="1" stroke-width="7" id="svg_10"/></g></svg>